<svg width="100" height="100" viewBox="0 0 100 100" xmlns="http://www.w3.org/2000/svg">
  <path d="M10,10 L20,10 L20,20 L10,20 Z" fill="currentColor" />
  <path d="M40,10 L50,10 L50,20 L40,20 Z" fill="currentColor" />
  <path d="M70,10 L80,10 L80,20 L70,20 Z" fill="currentColor" />
  <path d="M25,25 L35,25 L35,35 L25,35 Z" fill="currentColor" />
  <path d="M55,25 L65,25 L65,35 L55,35 Z" fill="currentColor" />
  <path d="M85,25 L95,25 L95,35 L85,35 Z" fill="currentColor" />
  <path d="M10,40 L20,40 L20,50 L10,50 Z" fill="currentColor" />
  <path d="M40,40 L50,40 L50,50 L40,50 Z" fill="currentColor" />
  <path d="M70,40 L80,40 L80,50 L70,50 Z" fill="currentColor" />
  <path d="M25,55 L35,55 L35,65 L25,65 Z" fill="currentColor" />
  <path d="M55,55 L65,55 L65,65 L55,65 Z" fill="currentColor" />
  <path d="M85,55 L95,55 L95,65 L85,65 Z" fill="currentColor" />
  <path d="M10,70 L20,70 L20,80 L10,80 Z" fill="currentColor" />
  <path d="M40,70 L50,70 L50,80 L40,80 Z" fill="currentColor" />
  <path d="M70,70 L80,70 L80,80 L70,80 Z" fill="currentColor" />
  <path d="M25,85 L35,85 L35,95 L25,95 Z" fill="currentColor" />
  <path d="M55,85 L65,85 L65,95 L55,95 Z" fill="currentColor" />
  <path d="M85,85 L95,85 L95,95 L85,95 Z" fill="currentColor" />
</svg>
